<svg xmlns="http://www.w3.org/2000/svg" viewBox="0 0 600 340" width="600" height="340" role="img" aria-label="فیلتر و روغن خودرو">
  <defs>
    <linearGradient id="bg" x1="0" y1="0" x2="1" y2="1">
      <stop offset="0" stop-color="#fdfcf6"/><stop offset="1" stop-color="#f6f2e4"/>
    </linearGradient>
    <pattern id="dots" width="18" height="18" patternUnits="userSpaceOnUse">
      <circle cx="2" cy="2" r="1.3" fill="#c9a227" opacity=".18"/>
    </pattern>
  </defs>
  <rect width="600" height="340" fill="url(#bg)"/>
  <rect width="600" height="340" fill="url(#dots)"/>
  <circle cx="500" cy="70" r="104" fill="#c9a227" opacity=".09"/>
  <circle cx="100" cy="298" r="82" fill="#19bfd3" opacity=".08"/>
  <g fill="none" stroke="#23254e" stroke-width="9" stroke-linecap="round" stroke-linejoin="round">
    <path d="M206 116v128a26 26 0 0 0 26 26h68a26 26 0 0 0 26-26V116"/>
    <rect x="192" y="80" width="154" height="38" rx="12"/>
    <path d="M238 150v88M282 150v88"/>
  </g>
  <g fill="none" stroke="#c9a227" stroke-width="9" stroke-linecap="round" stroke-linejoin="round">
    <path d="M420 118c22 30 34 50 34 66a34 34 0 0 1-68 0c0-16 12-36 34-66z"/>
  </g>
  <g fill="none" stroke="#19bfd3" stroke-width="9" stroke-linecap="round">
    <path d="M386 254h68"/>
  </g>
  <rect y="326" width="600" height="14" fill="#c9a227" opacity=".8"/>
</svg>
